#!OML:ASF I:\Actors\actors\Patient Classification 2\Patient 1\Session 1\actor1.ASF
:FULLY-SPECIFIED
:DEGREES
172
root -1.28778 17.3536 5.9275 -7.74161 -28.6581 1.78746
lowerback 10.7822 -7.43458 3.69432
upperback -0.0819606 -9.13051 6.08345
thorax -5.65312 -4.54459 5.77226
lowerneck -20.7658 9.05215 9.44831
upperneck 13.8888 10.9104 -7.05358
head 8.62974 4.95759 -2.37561
rclavicle 9.56154e-014 -5.40694e-014
rhumerus -3.43187 35.8584 -71.7592
rradius 123.319
rwrist 6.12935
rhand -33.0483 -25.6828
rfingers 7.12502
rthumb -6.26085 -55.5703
lclavicle 9.56154e-014 -5.40694e-014
lhumerus 11.7539 -42.6544 64.3579
lradius 118.17
lwrist 19.6024
lhand -19.6891 -56.5314
lfingers 7.12502
lthumb 6.63997 -26.6555
rfemur 33.1101 15.1128 16.6118
rtibia -39.8081
rfoot 8.5598 -13.831
rtoes -6.42917
lfemur 38.5679 22.7625 -12.2791
ltibia -32.6999
lfoot 5.431 16.9197
ltoes -20.0326
173
root -1.29178 17.3537 5.93275 -7.74556 -28.9946 1.92031
lowerback 10.2326 -7.36142 3.86113
upperback 0.328292 -9.09138 5.88192
thorax -4.97427 -4.54368 5.33422
lowerneck -21.0065 9.0871 9.56199
upperneck 13.4975 10.8739 -7.06461
head 8.54026 4.94092 -2.3988
rclavicle 3.99557e-014 -2.22639e-014
rhumerus -2.86578 35.0728 -71.4706
rradius 123.11
rwrist 6.05985
rhand -34.2843 -26.0259
rfingers 7.12502
rthumb -7.45399 -55.8746
lclavicle 3.99557e-014 -2.22639e-014
lhumerus 13.2434 -42.687 63.2193
lradius 117.992
lwrist 20.007
lhand -19.5951 -56.4767
lfingers 7.12502
lthumb 6.73072 -26.6036
rfemur 33.0459 15.4896 16.5196
rtibia -39.8942
rfoot 8.59393 -13.8453
rtoes -6.08884
lfemur 38.5122 22.9749 -12.3812
ltibia -32.5511
lfoot 5.30843 17.0514
ltoes -20.221
174
root -1.29421 17.3552 5.93685 -7.75555 -29.2757 2.11488
lowerback 10.2268 -7.32831 3.80697
upperback 0.35765 -9.05903 5.79395
thorax -4.9479 -4.52711 5.26224
lowerneck -20.8548 9.20636 9.88918
upperneck 13.1943 10.9823 -7.30126
head 8.45497 4.9903 -2.51876
rclavicle 3.66758e-014 -3.49861e-014
rhumerus -2.87583 34.7482 -71.2506
rradius 123.208
rwrist 5.85963
rhand -34.037 -26.1284
rfingers 7.12502
rthumb -7.21531 -55.9854
lclavicle 3.66758e-014 -3.49861e-014
lhumerus 14.2362 -42.8705 62.4553
lradius 117.823
lwrist 20.566
lhand -19.2833 -56.3169
lfingers 7.12502
lthumb 7.03171 -26.4537
rfemur 32.928 15.871 16.3414
rtibia -39.9385
rfoot 8.63351 -13.8636
rtoes -5.21895
lfemur 38.3805 23.0732 -12.6147
ltibia -32.3617
lfoot 5.14155 17.2489
ltoes -20.6001
175
root -1.29465 17.3592 5.93909 -7.73378 -29.5206 2.22191
lowerback 10.2865 -7.30244 3.78672
upperback 0.419001 -9.02742 5.7684
thorax -4.91887 -4.51169 5.24447
lowerneck -20.8636 9.38395 10.1967
upperneck 12.8948 11.1628 -7.55549
head 8.40496 5.06594 -2.62493
rclavicle 2.31783e-013 -4.77083e-014
rhumerus -2.78923 34.3987 -70.826
rradius 123.485
rwrist 5.54238
rhand -32.8673 -25.7407
rfingers 7.12502
rthumb -6.08609 -55.6333
lclavicle 2.31783e-013 -4.77083e-014
lhumerus 15.7639 -43.0369 61.2477
lradius 117.503
lwrist 20.8696
lhand -19.3857 -56.0924
lfingers 7.12502
lthumb 6.9328 -26.2259
rfemur 32.8019 16.2696 16.2433
rtibia -39.9584
rfoot 8.77761 -13.8854
rtoes -4.51633
lfemur 38.2118 23.0427 -12.8171
ltibia -32.1243
lfoot 4.99354 17.4937
ltoes -21.2738
176
root -1.29238 17.3666 5.94323 -7.67464 -29.7859 2.22192
lowerback 10.9133 -7.34844 3.67676
upperback 0.154961 -9.02813 5.98729
thorax -5.49342 -4.49798 5.65926
lowerneck -20.7525 9.64807 10.4122
upperneck 12.7746 11.529 -7.87668
head 8.41367 5.22012 -2.71166
rclavicle 5.54609e-014 -1.90833e-014
rhumerus -3.05359 34.3062 -70.2423
rradius 123.805
rwrist 5.12746
rhand -32.3255 -25.2394
rfingers 7.12502
rthumb -5.56299 -55.1463
lclavicle 5.54609e-014 -1.90833e-014
lhumerus 16.9909 -43.0462 60.4362
lradius 116.89
lwrist 21.0119
lhand -19.6785 -56.2629
lfingers 7.12502
lthumb 6.65019 -26.3873
rfemur 32.6796 16.7474 16.246
rtibia -39.957
rfoot 8.98043 -13.9664
rtoes -4.24189
lfemur 38.0326 22.9206 -12.9564
ltibia -31.8357
lfoot 4.79179 17.8379
ltoes -21.6081
177
root -1.28897 17.3738 5.95015 -7.6615 -30.0521 2.2774
lowerback 11.0767 -7.29347 3.6891
upperback 0.191558 -8.94076 6.05389
thorax -5.54163 -4.45413 5.73136
lowerneck -20.616 9.79692 10.4916
upperneck 12.1709 11.7075 -8.02584
head 8.21819 5.30044 -2.75606
rclavicle 6.77856e-014 1.27222e-014
rhumerus -3.13254 33.1085 -69.6518
rradius 123.743
rwrist 4.49069
rhand -33.9985 -23.4356
rfingers 7.12502
rthumb -7.17815 -53.2939
lclavicle 6.77856e-014 1.27222e-014
lhumerus 19.7963 -43.0349 58.4048
lradius 115.884
lwrist 21.8985
lhand -19.8725 -57.122
lfingers 7.12502
lthumb 6.46288 -27.2406
rfemur 32.5717 17.2807 16.1922
rtibia -39.9163
rfoot 9.09799 -14.151
rtoes -3.59159
lfemur 37.8506 22.7364 -13.178
ltibia -31.5041
lfoot 4.42241 18.318
ltoes -21.3107
178
root -1.28552 17.3832 5.96059 -7.62925 -30.3023 2.32768
lowerback 10.6381 -7.17291 3.8984
upperback 0.573442 -8.81867 5.97139
thorax -4.94563 -4.41081 5.40583
lowerneck -20.5654 9.90725 10.5393
upperneck 11.2394 11.7969 -8.13289
head 7.91484 5.34065 -2.79742
rclavicle -1.56642e-013 3.81667e-014
rhumerus -3.05655 31.0423 -69.1649
rradius 123.656
rwrist 3.42427
rhand -34.6134 -21.113
rfingers 7.12502
rthumb -7.77166 -50.9502
lclavicle -1.56642e-013 3.81667e-014
lhumerus 24.2366 -42.771 54.9764
lradius 114.418
lwrist 23.796
lhand -20.3111 -58.8785
lfingers 7.12502
lthumb 6.03944 -28.9845
rfemur 32.43 17.7794 16.1336
rtibia -39.8198
rfoot 9.11879 -14.3571
rtoes -2.71199
lfemur 37.627 22.5218 -13.4273
ltibia -31.1428
lfoot 3.94593 18.8396
ltoes -20.8543
179
root -1.28136 17.3987 5.97553 -7.51399 -30.5248 2.28182
lowerback 10.5481 -7.14995 4.03886
upperback 0.618066 -8.77799 6.10705
thorax -4.85024 -4.39546 5.44935
lowerneck -20.3624 10.1701 10.7083
upperneck 10.763 12.162 -8.50845
head 7.79433 5.49385 -2.90233
rclavicle -1.23445e-013 -6.36111e-015
rhumerus -3.54394 29.0433 -68.8089
rradius 123.417
rwrist 1.7942
rhand -33.819 -19.2384
rfingers 7.12502
rthumb -7.00488 -49.1025
lclavicle -1.23445e-013 -6.36111e-015
lhumerus 28.1876 -42.2099 51.9072
lradius 112.482
lwrist 26.0916
lhand -21.0441 -60.5871
lfingers 7.12502
lthumb 5.33177 -30.6742
rfemur 32.2207 18.121 16.1271
rtibia -39.6692
rfoot 9.08249 -14.4852
rtoes -2.11905
lfemur 37.364 22.3492 -13.59
ltibia -30.7789
lfoot 3.53151 19.2416
ltoes -20.6176
180
root -1.27742 17.4165 5.98798 -7.38609 -30.624 2.23588
lowerback 10.8632 -7.24298 3.96115
upperback 0.319404 -8.85376 6.43126
thorax -5.27302 -4.42368 5.92429
lowerneck -20.0421 10.5606 10.959
upperneck 10.8312 12.7648 -9.0288
head 7.87923 5.75085 -3.02584
rclavicle -6.06293e-014 6.67916e-014
rhumerus -4.20659 25.9832 -68.5997
rradius 122.595
rwrist -4.30377
rhand -32.4939 -16.2172
rfingers 7.12502
rthumb -5.72557 -46.1199
lclavicle -6.06293e-014 6.67916e-014
lhumerus 31.3317 -41.4894 49.4655
lradius 110.033
lwrist 28.2176
lhand -21.3238 -61.0434
lfingers 7.12502
lthumb 5.06171 -31.1238
rfemur 31.9928 18.2617 16.0983
rtibia -39.471
rfoot 9.0418 -14.4847
rtoes -2.291
lfemur 37.0857 22.2067 -13.7121
ltibia -30.4526
lfoot 3.28549 19.4752
ltoes -20.665
181
root -1.27148 17.429 5.99738 -7.31631 -30.744 2.23043
lowerback 10.4241 -7.26765 4.11529
upperback 0.544102 -8.92056 6.51878
thorax -4.79627 -4.46987 5.85084
lowerneck -20.1562 10.9347 11.2058
upperneck 10.7838 13.266 -9.43652
head 7.98113 5.95574 -3.11207
rclavicle 2.54444e-014 -1.27222e-014
rhumerus -4.34393 23.2056 -68.6558
rradius 119.641
rwrist -4.38752
rhand -32.8586 -16.6569
rfingers 7.12502
rthumb -6.07766 -46.5497
lclavicle 2.54444e-014 -1.27222e-014
lhumerus 35.4238 -40.331 46.168
lradius 106.982
lwrist 30.163
lhand -20.8016 -60.0925
lfingers 7.12502
lthumb 5.5659 -30.1856
rfemur 31.7905 18.3527 16.0341
rtibia -39.2517
rfoot 8.98833 -14.4168
rtoes -2.42786
lfemur 36.8871 22.1517 -13.8139
ltibia -30.1866
lfoot 3.07412 19.6407
ltoes -20.5574
182
root -1.26184 17.4345 6.00989 -7.35397 -31.0125 2.20609
lowerback 10.3818 -7.34376 4.13658
upperback 0.609654 -9.02312 6.80729
thorax -4.65236 -4.52568 6.14426
lowerneck -20.2231 11.425 11.4371
upperneck 10.9476 13.9916 -10.0153
head 8.18768 6.24821 -3.21161
rclavicle -5.725e-014 3.49861e-014
rhumerus -5.38422 20.8153 -68.6609
rradius 116.109
rwrist -4.39911
rhand -31.3174 -19.5964
rfingers 7.12502
rthumb -4.5896 -49.5267
lclavicle -5.725e-014 3.49861e-014
lhumerus 38.357 -38.9382 43.8643
lradius 103.44
lwrist 31.4246
lhand -20.315 -58.1861
lfingers 7.12502
lthumb 6.0357 -28.2921
rfemur 31.6963 18.4529 16.0082
rtibia -39.0588
rfoot 8.91633 -14.3301
rtoes -2.00877
lfemur 36.9047 22.2605 -13.808
ltibia -29.9799
lfoot 2.83934 19.7562
ltoes -20.2604
183
root -1.24876 17.4357 6.02468 -7.50607 -31.2912 2.16951
lowerback 10.5586 -7.45331 4.22343
upperback 0.599716 -9.13596 7.14082
thorax -4.71028 -4.58429 6.49629
lowerneck -20.186 11.9122 11.6671
upperneck 11.1316 14.7552 -10.7004
head 8.40555 6.55015 -3.33936
rclavicle 4.1546e-014 -7.63333e-014
rhumerus -5.47885 18.329 -68.1756
rradius 112.62
rwrist -7.0218
rhand -29.1861 -20.4033
rfingers 7.12502
rthumb -2.53141 -50.368
lclavicle 4.1546e-014 -7.63333e-014
lhumerus 40.5675 -37.5613 42.1208
lradius 99.5448
lwrist 31.8029
lhand -20.108 -55.77
lfingers 7.12502
lthumb 6.23558 -25.8818
rfemur 31.7607 18.4864 16.0216
rtibia -38.9129
rfoot 8.88642 -14.1871
rtoes -2.13387
lfemur 37.1018 22.4315 -13.7185
ltibia -29.8218
lfoot 2.75398 19.7875
ltoes -20.2672
184
root -1.23146 17.4328 6.04144 -7.72061 -31.6479 2.21544
lowerback 10.8155 -7.55901 4.36238
upperback 0.537577 -9.22527 7.42567
thorax -4.88506 -4.62926 6.78725
lowerneck -20.0343 12.3853 12.0005
upperneck 11.3165 15.5019 -11.4322
head 8.62441 6.847 -3.50134
rclavicle -6.69904e-014 5.08889e-014
rhumerus -5.22922 15.8089 -67.5193
rradius 109.111
rwrist -11.2156
rhand -27.1652 -21.4087
rfingers 7.12502
rthumb -0.579602 -51.3877
lclavicle -6.69904e-014 5.08889e-014
lhumerus 42.2944 -36.2007 40.6432
lradius 95.3703
lwrist 31.6444
lhand -19.6086 -52.9271
lfingers 7.12502
lthumb 6.71771 -23.0536
rfemur 31.8702 18.4891 15.9509
rtibia -38.8169
rfoot 8.93977 -13.9344
rtoes -2.66099
lfemur 37.3629 22.7076 -13.6776
ltibia -29.7139
lfoot 2.74631 19.7623
ltoes -20.309
